<?xml version="1.0" encoding="utf-8"?>
<!-- Generator: Adobe Illustrator 22.1.0, SVG Export Plug-In . SVG Version: 6.00 Build 0)  -->
<svg version="1.1" id="Layer_1" xmlns="http://www.w3.org/2000/svg" xmlns:xlink="http://www.w3.org/1999/xlink" x="0px" y="0px"
	 viewBox="0 0 500 500" style="enable-background:new 0 0 500 500;" xml:space="preserve">
<style type="text/css">
	.st0{fill:none;stroke:#2196F3;stroke-width:15;stroke-miterlimit:10;}
	.st1{fill:none;stroke:#2196F3;stroke-width:15;stroke-linecap:round;stroke-miterlimit:10;}
</style>
<g>
	<path class="st0" d="M214.2,432.1h12.7c17.4,0,34.8-2,51.9-5.8c23.7-5.4,38.4-8.6,59-35.7l0,0c27-35.5,42-81.3,42-128.7v-32.2
		c0-28.2-19.6-51.1-43.8-51.1c0,0-121.8,0-121.8,0H92.3c-24.2,0-43.8,22.9-43.8,51.1v32.2c0,47.5,14.9,93.3,42,128.7l0,0
		c20.6,27.1,35.3,30.3,59,35.7c17.1,3.9,34.5,5.8,51.9,5.8C201.4,432.1,214.2,432.1,214.2,432.1z"/>
	<path class="st0" d="M379.8,245.7c0,0,53-81.5,74.2-30.6c21.2,50.9-3.9,104.4-31.8,122.3c-31.8,20.4-72.4,30.2-72.4,30.2"/>
</g>
<g>
	<path class="st1" d="M290.4,142.7l-11.5-19.4c-5.8-9.8-3.5-21.7,5.7-29.4l0,0c15.7-13.3,18.2-34.1,5.8-49.7l0,0"/>
	<path class="st1" d="M166,142.7l-11.5-19.4c-5.8-9.8-3.5-21.7,5.7-29.4l0,0c15.7-13.3,18.2-34.1,5.8-49.7l0,0"/>
	<path class="st1" d="M229.6,142.7l-11.5-19.4c-5.8-9.8-3.5-21.7,5.7-29.4l0,0c15.7-13.3,18.2-34.1,5.8-49.7l0,0"/>
</g>
<path class="st0" d="M32.9,434.6h362.5c4.4,0,7.2,4.6,5.3,8.5l-7.2,14.3c-6,12-18.2,19.5-31.6,19.5H66.4c-13.4,0-25.6-7.6-31.6-19.5
	l-7.2-14.3C25.7,439.2,28.5,434.6,32.9,434.6z"/>
</svg>
