<?xml version="1.0" encoding="utf-8"?>
<!-- Generator: Adobe Illustrator 22.1.0, SVG Export Plug-In . SVG Version: 6.00 Build 0)  -->
<svg version="1.1" id="Layer_1" xmlns="http://www.w3.org/2000/svg" xmlns:xlink="http://www.w3.org/1999/xlink" x="0px" y="0px"
	 viewBox="0 0 500 500" style="enable-background:new 0 0 500 500;" xml:space="preserve">
<style type="text/css">
	.st0{fill:#FFFFFF;stroke:#2196F3;stroke-width:20;stroke-miterlimit:10;}
	.st1{fill:none;stroke:#2196F3;stroke-width:20;stroke-miterlimit:10;}
</style>
<path class="st0" d="M294.7,11.6c5.1-3.5,12.1-1,14,5.1c7.5,24.5,32.3,103.8,53,147.7c17.3,36.8,91.5,163.3,43.6,236
	c-27.4,41.6-89.9,82.9-140.8,87.9c-50.3,5-151.1-21.3-177-126.2c-19.4-78.4,29.6-232,39.7-202.6C140,196.8,173.3,253,195,255
	c24.9,2.2-4.5-83.4,27.5-141.5C239.9,81.9,275.3,24.8,294.7,11.6z"/>
<path class="st1" d="M260.1,278c2.3-1.5,5.3-0.4,6.1,2.2c3.3,10.8,14.9,45.4,23.3,65c5,11.5,40.3,71.9,19.2,103.9
	c-12,18.3-39.6,36.5-62,38.7c-22.2,2.2-66.5-9.4-77.9-55.6c-8.5-34.5,13-102.1,17.5-89.2c5.7,16.5,20.3,41.2,29.9,42.1
	c11,1-2-36.7,12.1-62.3C236,308.9,251.6,283.8,260.1,278z"/>
</svg>
