<?xml version="1.0" encoding="utf-8"?>
<!-- Generator: Adobe Illustrator 22.1.0, SVG Export Plug-In . SVG Version: 6.00 Build 0)  -->
<svg version="1.1" id="Layer_1" xmlns="http://www.w3.org/2000/svg" xmlns:xlink="http://www.w3.org/1999/xlink" x="0px" y="0px"
	 viewBox="0 0 500 500" style="enable-background:new 0 0 500 500;" xml:space="preserve">
<style type="text/css">
	.st0{fill:none;stroke:#2196F3;stroke-width:20;stroke-linecap:round;stroke-miterlimit:10;}
</style>
<g>
	<path class="st0" d="M248,37.9v323.9c-1.1,106.1,40,96.9,72.6,95.7c23.1-0.9,41.3-33.3,41.3-95.7"/>
	<path class="st0" d="M430.8,242.8c0-101-81.9-182.9-182.9-182.9S65,141.7,65,242.8"/>
	<path class="st0" d="M342.3,242.8c0-101-42.3-182.9-94.3-182.9s-94.3,81.9-94.3,182.9"/>
	<path class="st0" d="M65.4,242.1c0-23.6,19.2-42.8,42.8-42.8s42.8,19.2,42.8,42.8"/>
	<path class="st0" d="M153.4,242.1c0-23.6,21-42.8,47.1-42.8s47.1,19.2,47.1,42.8"/>
	<path class="st0" d="M247.8,242.1c0-23.6,21-42.8,47.1-42.8c26,0,47.1,19.2,47.1,42.8"/>
	<path class="st0" d="M342.7,242.1c0-23.6,19.2-42.8,42.8-42.8s42.8,19.2,42.8,42.8"/>
</g>
<line class="st0" x1="63" y1="42.5" x2="63" y2="54.4"/>
<line class="st0" x1="95.9" y1="72.9" x2="95.9" y2="84.8"/>
<line class="st0" x1="98.7" y1="22.5" x2="98.7" y2="34.5"/>
<line class="st0" x1="130.4" y1="53" x2="130.4" y2="64.9"/>
<line class="st0" x1="50.4" y1="104.8" x2="50.4" y2="116.6"/>
<line class="st0" x1="151.7" y1="19.8" x2="151.7" y2="31.8"/>
<line class="st0" x1="178.3" y1="34.6" x2="178.3" y2="46.5"/>
<line class="st0" x1="211" y1="14.2" x2="211" y2="26.1"/>
<line class="st0" x1="435" y1="42.5" x2="435" y2="54.4"/>
<line class="st0" x1="402.1" y1="72.9" x2="402.1" y2="84.8"/>
<line class="st0" x1="399.3" y1="22.5" x2="399.3" y2="34.5"/>
<line class="st0" x1="367.6" y1="53" x2="367.6" y2="64.9"/>
<line class="st0" x1="447.6" y1="104.8" x2="447.6" y2="116.6"/>
<line class="st0" x1="346.3" y1="19.8" x2="346.3" y2="31.8"/>
<line class="st0" x1="319.7" y1="34.6" x2="319.7" y2="46.5"/>
<line class="st0" x1="286.9" y1="14.2" x2="286.9" y2="26.1"/>
</svg>
