<?xml version="1.0" encoding="utf-8"?>
<!-- Generator: Adobe Illustrator 22.1.0, SVG Export Plug-In . SVG Version: 6.00 Build 0)  -->
<svg version="1.1" id="Layer_1" xmlns="http://www.w3.org/2000/svg" xmlns:xlink="http://www.w3.org/1999/xlink" x="0px" y="0px"
	 viewBox="0 0 250 250" style="enable-background:new 0 0 250 250;" xml:space="preserve">
<style type="text/css">
	.st0{fill:#FFFFFF;stroke:#2196F3;stroke-width:15;stroke-linecap:round;stroke-miterlimit:10;}
	.st1{fill:#2196F3;}
</style>
<g>
	<path class="st0" d="M46.9,83.4c-16.5-4.1-33.2,5.9-37.3,22.4S15.5,139,32,143.1"/>
	<path class="st0" d="M93.5,43.4c-8.2-9.5-25.3-8.2-38.1,2.9S38.8,74.1,47,83.6"/>
	<path class="st0" d="M203.1,81.8c16.5-4.1,33.2,5.9,37.3,22.4s-5.9,33.2-22.4,37.3"/>
	<path class="st0" d="M156.5,41.8c11.1-12.9,30.5-14.3,43.4-3.2s14.3,30.5,3.2,43.4"/>
	<path class="st0" d="M94.1,41.8c0-15,13.8-27.1,30.7-27.1c17,0,30.7,12.1,30.7,27.1"/>
</g>
<g>
	<g>
		<path class="st1" d="M146.1,64l-52.7,80.4l-7.7-16.3c6.8-0.2,13.6-0.2,20.4-0.2l10.2,0.1l10.2,0.2l10.2,0.3
			c3.4,0.1,6.8,0.2,10.2,0.4c6.8,0.3,13.6,0.6,20.4,1L187,131l-14,12.8c-8,7.4-16,14.8-24.1,22.1l-12.1,11l-12.2,10.9
			c-8.1,7.3-16.3,14.5-24.5,21.7s-16.5,14.4-24.8,21.4c7-8.4,14.1-16.7,21.2-25s14.3-16.5,21.5-24.7l10.8-12.3l10.9-12.2
			c7.2-8.2,14.5-16.2,21.8-24.4l5.8,14c-6.8,0.4-13.6,0.7-20.4,1c-3.4,0.2-6.8,0.3-10.2,0.4l-10.2,0.3l-10.2,0.2l-10.2,0.1
			c-6.8,0-13.6,0-20.4-0.2l-23.4-0.8l15.6-15.5L146.1,64z"/>
	</g>
</g>
</svg>
