<?xml version="1.0" encoding="utf-8"?>
<!-- Generator: Adobe Illustrator 22.1.0, SVG Export Plug-In . SVG Version: 6.00 Build 0)  -->
<svg version="1.1" id="Layer_1" xmlns="http://www.w3.org/2000/svg" xmlns:xlink="http://www.w3.org/1999/xlink" x="0px" y="0px"
	 viewBox="0 0 500 500" style="enable-background:new 0 0 500 500;" xml:space="preserve">
<style type="text/css">
	.st0{fill:none;stroke:#2196F3;stroke-width:15;stroke-miterlimit:10;}
	.st1{fill:none;stroke:#2196F3;stroke-width:15;stroke-linecap:round;stroke-miterlimit:10;}
</style>
<g>
	<circle class="st0" cx="250.1" cy="189.6" r="40.9"/>
	<line class="st0" x1="237.3" y1="228.2" x2="237.3" y2="484"/>
	<line class="st0" x1="262.9" y1="228.2" x2="262.9" y2="484"/>
	<path class="st0" d="M241.9,146.7l0.3-128l0.1,0c9.9-3.6,22.8-3.6,32.6,0.1l0,0l-0.2,90.2c0,4.8-2,9.5-5.9,13.8l-3,3.4
		c-1.4,1.5-2.6,3.1-3.5,4.8l-8.9,15.9L241.9,146.7z"/>
	<path class="st0" d="M211.9,215.5l-110.9,64l-0.1-0.1c-8.1-6.7-14.5-17.9-16.3-28.3l0,0l78.2-45.1c4.2-2.4,9.2-3,14.9-1.9l4.4,0.9
		c2,0.4,4,0.6,5.9,0.7l18.2-0.3L211.9,215.5z"/>
	<path class="st0" d="M288.1,215.2l110.9,64l0.1-0.1c8.1-6.7,14.5-17.9,16.3-28.3v0l-78.2-45.1c-4.2-2.4-9.2-3-14.9-1.9l-4.4,0.9
		c-2,0.4-4,0.6-5.9,0.7l-18.2-0.3L288.1,215.2z"/>
</g>
<line class="st1" x1="45" y1="117" x2="72" y2="117"/>
<path class="st1" d="M341.9,72h63c15.6,0,28.8-26.9,19.4-39.4c-2.5-3.4-5.9-5.6-10.4-5.6c-18,0-18,18-18,18"/>
<path class="st1" d="M391.5,117h63c15.6,0,28.8,26.9,19.4,39.4c-2.5,3.4-5.9,5.6-10.4,5.6c-18,0-18-18-18-18"/>
<line class="st1" x1="117" y1="72" x2="162" y2="72"/>
<g>
	<path class="st1" d="M355.5,405h63c15.6,0,28.8,26.9,19.4,39.4c-2.5,3.4-5.9,5.6-10.4,5.6c-18,0-18-18-18-18"/>
	<line class="st1" x1="306" y1="405" x2="333" y2="405"/>
</g>
<g>
	<line class="st1" x1="45" y1="369" x2="90" y2="369"/>
	<path class="st1" d="M112,369h27.5c15.6,0,28.8-26.9,19.4-39.4c-2.5-3.4-5.9-5.6-10.4-5.6c-18,0-18,18-18,18"/>
</g>
</svg>
